<svg xmlns="http://www.w3.org/2000/svg" xmlns:xlink="http://www.w3.org/1999/xlink" width="425.468" height="97.156" viewBox="0 0 425.468 97.156">
  <defs>
    <linearGradient id="linear-gradient" x1="0.243" y1="0.948" x2="0.759" y2="0.054" gradientUnits="objectBoundingBox">
      <stop offset="0.005" stop-color="#a47472"/>
      <stop offset="0.25" stop-color="#daa8a4"/>
      <stop offset="0.5" stop-color="#ebd3d0"/>
      <stop offset="0.75" stop-color="#daa8a4"/>
      <stop offset="1" stop-color="#a47472"/>
    </linearGradient>
  </defs>
  <g id="Group_3" data-name="Group 3" transform="translate(-352.605 -251.713)">
    <g id="Group_2" data-name="Group 2" transform="translate(492.951 289.145)">
      <g id="Group_1" data-name="Group 1">
        <path id="Path_1" data-name="Path 1" d="M487.754,307.036V289.266l-2.433-.257v-1.717h8.327v1.717l-2.346.257v9.014l7.353-9.014-2.175-.257-.029-1.717h7.584v1.717l-2.4.257-6.324,7.212a13.9,13.9,0,0,1,1.6,2.06q.915,1.374,2.175,3.462,1.488,2.4,2.347,3.649t1.259,1.331l2.089.515v1.487h-4.893q-.43-.027-1.144-1.173t-1.918-3.462q-1.174-2.232-1.975-3.591a10.478,10.478,0,0,0-1.488-2.047l-2.059,2.347v5.98l2.661.458v1.487h-8.671v-1.487Z" transform="translate(-485.293 -287.091)" fill="#daa8a4"/>
        <path id="Path_2" data-name="Path 2" d="M512.44,307.065V289.438l-2.146-.23v-1.917h8.212v1.917l-2.46.258-.029,17.685,6.552-.4,1.946-3.348,1.574.686-.945,4.893H510.237v-1.487Z" transform="translate(-483.853 -287.091)" fill="#daa8a4"/>
        <path id="Path_3" data-name="Path 3" d="M532.906,307.036l7.125-19.744h3.2l6.839,19.744,2.2.487v1.459h-8.183v-1.459l2.146-.487L545.1,303.4h-8.07l-1.2,3.606,2.232.487v1.487h-7.1v-1.487Zm9.442-12.247-1.23-4.092-3.463,10.7h6.782Z" transform="translate(-482.657 -287.091)" fill="#daa8a4"/>
        <path id="Path_4" data-name="Path 4" d="M578.944,289.18l-2.175.258v19.543h-3.834L564.321,295.1l-1.774-3.864.029,15.767,2.747.487v1.487H557.8v-1.487l2.317-.487V289.467l-2.232-.258v-1.917h5.752l8.985,15.023,1.688,3.634V289.467l-2.346-.287v-1.888h6.982Z" transform="translate(-481.108 -287.091)" fill="#daa8a4"/>
        <path id="Path_5" data-name="Path 5" d="M600.214,287.36a28.205,28.205,0,0,1,2.933.572l-.258,4.349H601.03l-.916-2.4a3,3,0,0,0-1.431-.644,10.889,10.889,0,0,0-2.89-.272,5.87,5.87,0,0,0-3.534,1.131,7.535,7.535,0,0,0-2.446,3.133,11.2,11.2,0,0,0-.887,4.578,15.575,15.575,0,0,0,.73,4.866,8.009,8.009,0,0,0,2.26,3.591,5.5,5.5,0,0,0,3.792,1.359,8.063,8.063,0,0,0,2.5-.386,3.048,3.048,0,0,0,1.7-1.188v-5.968l-3.2-.286v-1.717h8.126v1.717l-1.574.286v7.914a4.692,4.692,0,0,0-1.216.143q-.787.171-1.645.371-1.659.43-2.933.659a14.327,14.327,0,0,1-2.533.23,9.527,9.527,0,0,1-5.093-1.374,9.293,9.293,0,0,1-3.463-3.806,11.941,11.941,0,0,1-1.23-5.465,12.317,12.317,0,0,1,1.488-6.139,10.377,10.377,0,0,1,4.064-4.078,11.693,11.693,0,0,1,5.779-1.431A25.477,25.477,0,0,1,600.214,287.36Z" transform="translate(-479.53 -287.102)" fill="#daa8a4"/>
        <path id="Path_6" data-name="Path 6" d="M625.5,288.419a4.836,4.836,0,0,1,2.047,4.406,6.388,6.388,0,0,1-1.231,3.935,6.909,6.909,0,0,1-3.433,2.389,3.647,3.647,0,0,1,.458.257,5.546,5.546,0,0,1,1.588,1.632q.73,1.087,1.817,3,.8,1.433,1.287,2.161a2.067,2.067,0,0,0,.916.873l1.631.429v1.487H625.86c-.306,0-.63-.29-.973-.873s-.8-1.5-1.374-2.762a33.122,33.122,0,0,0-2.161-4.148,2,2,0,0,0-2.074-.957l-2.117.029v6.766l2.833.458v1.487h-8.927v-1.487l2.546-.458V289.421l-2.232-.258V287.3h3.492c.4,0,.782-.01,1.144-.029s.7-.038,1-.057q1.774-.114,2.8-.115A10.446,10.446,0,0,1,625.5,288.419Zm-6.8.487a6.307,6.307,0,0,0-1.545.2v8.813a18.019,18.019,0,0,0,2.089.086,5,5,0,0,0,3.549-1.131,4.815,4.815,0,0,0,1.2-3.648,4.444,4.444,0,0,0-1.131-3.262,4.623,4.623,0,0,0-3.534-1.087A5.372,5.372,0,0,1,618.706,288.905Z" transform="translate(-478.034 -287.102)" fill="#daa8a4"/>
        <path id="Path_7" data-name="Path 7" d="M636.656,307.036l7.126-19.744h3.2l6.839,19.744,2.2.487v1.459h-8.185v-1.459l2.146-.487-1.144-3.634h-8.069l-1.2,3.606,2.232.487v1.487h-7.1v-1.487Zm9.443-12.247-1.23-4.092-3.463,10.7h6.782Z" transform="translate(-476.669 -287.091)" fill="#daa8a4"/>
        <path id="Path_8" data-name="Path 8" d="M682.053,289.009l-2.146.287v10.187q0,4.922-2.118,7.41a7.453,7.453,0,0,1-6.009,2.491q-4.636,0-6.739-2.347t-2.1-7.125l.057-10.646-2.232-.257v-1.717h8.213v1.717l-2.461.287v10.73q0,3.978,1.488,5.751a5.28,5.28,0,0,0,4.292,1.775q5.15,0,5.151-8.069l-.029-10.187-2.461-.287v-1.717h7.1Z" transform="translate(-475.165 -287.091)" fill="#daa8a4"/>
        <path id="Path_9" data-name="Path 9" d="M691.474,308.965a10.19,10.19,0,0,1-2.819-.83v-4.922H690.2l1.059,2.975a3.658,3.658,0,0,0,1.817,1.144,9.209,9.209,0,0,0,2.532.315,4.33,4.33,0,0,0,2.762-.887,3.077,3.077,0,0,0,1.131-2.576,3.177,3.177,0,0,0-1.131-2.388,17.563,17.563,0,0,0-3.277-2.248,36.159,36.159,0,0,1-3.433-2.031,8.276,8.276,0,0,1-2.117-2.074,4.7,4.7,0,0,1-.83-2.762,4.636,4.636,0,0,1,1.045-3.062,6.423,6.423,0,0,1,2.661-1.889,9.074,9.074,0,0,1,3.305-.629,18.82,18.82,0,0,1,3.42.315,9.523,9.523,0,0,1,2.475.716v4.177h-1.631l-1.145-2.775a3.116,3.116,0,0,0-1.3-.587,7.469,7.469,0,0,0-1.788-.214,4.558,4.558,0,0,0-2.576.758,2.57,2.57,0,0,0-1.144,2.3,3.346,3.346,0,0,0,1.244,2.6,20.49,20.49,0,0,0,3.792,2.433,30.368,30.368,0,0,1,3.062,1.831,8.014,8.014,0,0,1,2.032,2.018,4.548,4.548,0,0,1,.8,2.646,5.142,5.142,0,0,1-2.16,4.478,9.2,9.2,0,0,1-5.451,1.531A21.109,21.109,0,0,1,691.474,308.965Z" transform="translate(-473.556 -287.102)" fill="#daa8a4"/>
        <path id="Path_10" data-name="Path 10" d="M724.119,287.332q1.2.228,2.49.572l.686.171-.257,4.522h-1.975l-.859-2.49a4.46,4.46,0,0,0-1.5-.787,8.472,8.472,0,0,0-2.3-.243,5.809,5.809,0,0,0-3.448,1.088,7.316,7.316,0,0,0-2.418,3.075,11.257,11.257,0,0,0-.888,4.622,13.864,13.864,0,0,0,.815,4.821,8.206,8.206,0,0,0,2.4,3.549,5.752,5.752,0,0,0,3.82,1.331q3.089,0,4.063-1.46l.916-2.375h1.66v4.349a7.185,7.185,0,0,0-1.517.371,23.945,23.945,0,0,1-2.646.688,15.721,15.721,0,0,1-3.019.258,10.748,10.748,0,0,1-5.352-1.317,9.3,9.3,0,0,1-3.662-3.706,11.22,11.22,0,0,1-1.317-5.509,11.84,11.84,0,0,1,1.574-6.095,11.1,11.1,0,0,1,4.25-4.178,11.79,11.79,0,0,1,5.823-1.488A14.281,14.281,0,0,1,724.119,287.332Z" transform="translate(-472.335 -287.102)" fill="#daa8a4"/>
        <path id="Path_11" data-name="Path 11" d="M736.641,307.036V289.266l-2.346-.257v-1.717h8.241v1.717l-2.317.257v8.013h9.815v-8.041l-2.317-.23v-1.717H755.9v1.717l-2.317.257v17.771l2.461.487v1.459h-8.471v-1.459l2.461-.487v-7.755h-9.815v7.755l2.432.458v1.487h-8.355v-1.487Z" transform="translate(-470.921 -287.091)" fill="#daa8a4"/>
      </g>
      <path id="Path_12" data-name="Path 12" d="M611.307,299.2l2.481.489v-2.306h-2.481Z" transform="translate(-478.02 -286.509)" fill="#daa8a4"/>
    </g>
    <path id="Path_13" data-name="Path 13" d="M446.07,295.53c-1.249-5.552-4.542-9.489-8.452-10.331,2.168-3.359,1.717-8.464-1.306-13.248-1.229-2.106-1.306-4.287-.194-5.425l-1.169-1.169a3.043,3.043,0,0,1-2.18.787,6.629,6.629,0,0,1-3.214-.961,16.094,16.094,0,0,0-8.365-2.679,8.95,8.95,0,0,0-4.916,1.344c-.845-3.905-4.773-7.193-10.291-8.436-2.357-.621-3.954-2.107-3.973-3.7h-1.652c-.019,1.589-1.612,3.075-3.937,3.69-5.548,1.248-9.483,4.537-10.33,8.445a8.938,8.938,0,0,0-4.915-1.344,16.061,16.061,0,0,0-8.333,2.658,6.66,6.66,0,0,1-3.246.982,3.036,3.036,0,0,1-2.179-.787l-1.169,1.169c1.111,1.137,1.034,3.314-.173,5.392-3.043,4.808-3.5,9.92-1.328,13.282-3.908.842-7.2,4.771-8.443,10.292-.622,2.358-2.109,3.955-3.7,3.974v1.653c1.589.018,3.075,1.612,3.689,3.936,1.25,5.551,4.542,9.488,8.452,10.33-2.167,3.359-1.715,8.464,1.308,13.247,1.228,2.107,1.305,4.287.194,5.425l1.169,1.169a3.036,3.036,0,0,1,2.179-.787,6.63,6.63,0,0,1,3.214.961,16.094,16.094,0,0,0,8.365,2.679,8.938,8.938,0,0,0,4.915-1.344c.846,3.905,4.779,7.194,10.336,8.447,2.256.462,3.908,2.013,3.928,3.687h1.653c.019-1.589,1.613-3.075,3.936-3.689,5.548-1.248,9.484-4.538,10.329-8.446a8.95,8.95,0,0,0,4.916,1.344,16.055,16.055,0,0,0,8.332-2.658,6.659,6.659,0,0,1,3.247-.982,3.038,3.038,0,0,1,2.179.787l1.168-1.17c-1.11-1.136-1.033-3.313.176-5.391,3.042-4.807,3.5-9.918,1.328-13.28,3.908-.843,7.2-4.776,8.45-10.325.5-2.3,2.022-3.921,3.69-3.94v-1.653C448.171,299.447,446.686,297.854,446.07,295.53ZM435.285,314.4l0,.008,0,.007a37.2,37.2,0,0,1-19.969,19.967l0,0H415.3a36.992,36.992,0,0,1-28.24,0h0l0,0a37.2,37.2,0,0,1-19.969-19.967h0l-.005-.017a37,37,0,0,1,0-28.226l0-.012.006-.012A37.208,37.208,0,0,1,387.044,266.2l.019-.01.013,0a37,37,0,0,1,28.214,0l.017.006.014.006a37.242,37.242,0,0,1,19.961,19.969l0,.01a37.012,37.012,0,0,1,0,28.227Zm-14.1-50.248A14.481,14.481,0,0,1,428.7,266.6a7.681,7.681,0,0,0,5.062,1.116,7.641,7.641,0,0,0,1.138,5.1c2.674,4.232,3.153,8.649,1.357,11.462A38.917,38.917,0,0,0,417.2,265.218,7.335,7.335,0,0,1,421.19,264.157Zm-24.375-7.149a7.6,7.6,0,0,0,4.37-2.787,7.643,7.643,0,0,0,4.405,2.8c4.882,1.1,8.344,3.885,9.066,7.144a38.686,38.686,0,0,0-26.947,0C388.43,260.9,391.9,258.114,396.814,257.008Zm-29.326,15.766a7.591,7.591,0,0,0,1.119-5.063,7.694,7.694,0,0,0,5.094-1.136,14.437,14.437,0,0,1,7.475-2.418,7.333,7.333,0,0,1,3.989,1.061,38.922,38.922,0,0,0-19.056,19.055C364.312,281.456,364.794,277.033,367.488,272.774ZM357.9,304.661a7.593,7.593,0,0,0-2.787-4.37,7.65,7.65,0,0,0,2.8-4.407c1.1-4.882,3.884-8.344,7.143-9.066a38.673,38.673,0,0,0,0,26.949C361.791,313.044,359.006,309.575,357.9,304.661Zm23.276,31.763a14.481,14.481,0,0,1-7.509-2.439,8.205,8.205,0,0,0-4.071-1.2,5.583,5.583,0,0,0-.991.085,7.642,7.642,0,0,0-1.138-5.1c-2.674-4.232-3.154-8.649-1.358-11.462a38.919,38.919,0,0,0,19.055,19.055A7.339,7.339,0,0,1,381.176,336.425Zm24.376,7.149a7.617,7.617,0,0,0-4.352,2.76,6.949,6.949,0,0,0-4.427-2.769c-4.881-1.1-8.343-3.885-9.066-7.143a38.67,38.67,0,0,0,26.947,0C413.934,339.682,410.465,342.467,405.552,343.574Zm29.325-15.766a7.589,7.589,0,0,0-1.119,5.062,7.7,7.7,0,0,0-5.094,1.137,14.437,14.437,0,0,1-7.475,2.418,7.342,7.342,0,0,1-3.988-1.06,38.91,38.91,0,0,0,19.055-19.055C438.054,319.127,437.571,323.549,434.877,327.807Zm9.579-23.107c-1.1,4.882-3.884,8.345-7.144,9.066a38.69,38.69,0,0,0,0-26.949c3.261.721,6.046,4.191,7.153,9.1a7.6,7.6,0,0,0,2.773,4.361A7.136,7.136,0,0,0,444.456,304.7Zm-43.273-38.5a34.086,34.086,0,1,0,34.086,34.086A34.124,34.124,0,0,0,401.183,266.2Zm30.893,24.216H419.721l3.55-6.811h-8.037l4.814-7.417H408.417l-6.387-8.315A32.487,32.487,0,0,1,432.076,290.421Zm1.541,9.87a32.383,32.383,0,0,1-.9,7.545l-6.108-7.952,5.92-7.9A32.344,32.344,0,0,1,433.617,300.291Zm-36.959,24.735h9.053l-4.528,6.044Zm-27.909-24.735a32.339,32.339,0,0,1,1.089-8.328l5.93,7.92-6.119,7.972A32.369,32.369,0,0,1,368.749,300.291Zm3.238-8.217h9.776l-4.949,6.448Zm4.81,9.184,4.842,6.468h-9.807Zm1.045-1.362,5.8-7.557,3.809,7.308L383.24,307.1Zm23.341-30.405,5.15,6.7h-10.3Zm16.077,20.931h-6.445l2.952-4.548Zm-1.876-5.157h5.162l-2.087,4ZM394.39,309.378h2.586l2.915,6.316h-2.21Zm1.427,6.316h-5.161l2.441-5.218Zm2.98-6.316h4.773l-2.387,5.17Zm5.026,7.969-2.64,5.064-2.64-5.064Zm-1.349-1.653,2.916-6.316h2.586l-3.293,6.316Zm6.794-5.218,2.442,5.218h-5.162Zm-.427-2.75H393.568l-.535-1.012-.015.033-1.134-2.176h.015l-2.566-4.85.012-.021-.012-.022,1.742-3.084.007.015,1.475-2.628h-.006l.609-1.078v0l.562-1h14.963l2.792,5.022,1.554,2.751-.012.022.012.021Zm-1.037-17.3h-2.367l-2.853-5.157h2.306Zm-1.015-5.157h5.4l-2.889,4.451Zm-3.24,5.157h-4.731l2.365-4.276Zm-5.139-6.811,2.773-4.91,2.773,4.91Zm1.372,1.653-2.853,5.157h-2.367l2.914-5.157Zm-6.719,4.451-2.889-4.451h5.4Zm-1.4,18.011h-6.877l3.577-6.333Zm-6.293-15.652h6.359l-3.307,5.856ZM414,301.393l3.576,6.333H410.7Zm-.059-3.464-3.307-5.856H417Zm-.29-14.917-3.967-5.165h7.319Zm-1.624.6h-6.174l-3.257-5.764h5Zm-12.263-5.764-3.256,5.764h-6.168l4.424-5.764Zm-11.051,5.169-3.355-5.169h7.324Zm2.836,7.405h-6.435l3.486-4.543Zm-7.64-1.147-2.09-4.011h5.169Zm-.478,20.847,4.173,5.572h-7.32Zm1.509-.744h6.844L389.154,315Zm4.541,8.823,3.872,5.172h-6.292Zm1.425-.855h5.771l3.141,6.027h-4.4Zm11.637,6.027,3.141-6.027h5.777l-4.514,6.027Zm10.34-5.167,2.418,5.167h-6.289Zm-2.306-8.829h6.854l-4.219,5.632Zm8.357.751,3.144,5.565h-7.312Zm-4.024-10.483,3.813-7.316,5.812,7.566-5.407,7.217Zm5.7-7.572H430.4l-4.831,6.449Zm4.969,9.184,4.969,6.468h-9.815Zm-25.248-33.378-6.382,8.315H382.317l4.814,7.417H379.1l3.55,6.811H370.29A32.484,32.484,0,0,1,400.336,267.879Zm-30.281,41.5h11.9l-4.5,7.969h10.6l-3.593,7.679h10.129l5.748,7.677A32.484,32.484,0,0,1,370.054,309.378ZM402.025,332.7l5.752-7.677H417.9l-3.593-7.679h10.6l-4.5-7.969h11.9A32.484,32.484,0,0,1,402.025,332.7Zm44.023-16.95a3.376,3.376,0,1,0,1.783,4.43A3.362,3.362,0,0,0,446.048,315.752Zm.263,3.781a1.725,1.725,0,1,1-2.233-2.274,1.725,1.725,0,0,1,2.233,2.274Zm-89.786-34.592a3.379,3.379,0,1,0-1.81-1.847A3.355,3.355,0,0,0,356.525,284.942Zm-.263-3.785a1.71,1.71,0,0,1,.942-.921,1.724,1.724,0,0,1,2.232,2.274,1.725,1.725,0,0,1-3.174-1.353Zm87.326,4.16a3.378,3.378,0,1,0-.009-6.241,3.376,3.376,0,0,0,.009,6.241Zm-.307-3.778a1.721,1.721,0,1,1,0,1.318A1.714,1.714,0,0,1,443.281,281.54ZM356.4,315.381h0a3.377,3.377,0,1,0,4.415,1.818A3.381,3.381,0,0,0,356.4,315.381Zm1.961,4.709a1.724,1.724,0,1,1-1.325-3.184h0a1.724,1.724,0,1,1,1.326,3.184ZM417.8,259.738a3.379,3.379,0,1,0-1.837-1.816A3.375,3.375,0,0,0,417.8,259.738Zm-.323-3.779h0a1.727,1.727,0,1,1,.008,1.321A1.713,1.713,0,0,1,417.481,255.959Zm-32.715,85a3.378,3.378,0,1,0-1.278,6.507,3.378,3.378,0,0,0,1.278-6.507Zm.326,3.778a1.727,1.727,0,0,1-2.249.949,1.726,1.726,0,0,1-.946-2.248h0a1.71,1.71,0,0,1,.928-.938,1.7,1.7,0,0,1,1.318-.01,1.726,1.726,0,0,1,.949,2.247Zm-3.21-84.869a3.377,3.377,0,1,0-1.83-1.827A3.369,3.369,0,0,0,381.882,259.864Zm-.3-3.78a1.722,1.722,0,1,1,0,1.32h0A1.72,1.72,0,0,1,381.577,256.083ZM418.1,340.832a3.378,3.378,0,1,0,4.416,1.822A3.381,3.381,0,0,0,418.1,340.832Zm1.959,4.712a1.726,1.726,0,0,1-2.254-.932h0a1.724,1.724,0,1,1,2.254.932ZM395.49,293.888l-3.516,5.854,3.393,6h11.663l3.358-6-3.48-5.854Zm10.451,10.256h-9.49l-2.477-4.379,2.57-4.28h9.3l2.544,4.28Zm-4.758-7.261a2.932,2.932,0,1,0,2.932,2.931A2.936,2.936,0,0,0,401.184,296.883Zm0,4.53a1.6,1.6,0,1,1,1.6-1.6A1.6,1.6,0,0,1,401.184,301.413Z" transform="translate(0 0)" fill="url(#linear-gradient)"/>
  </g>
</svg>
